<svg xmlns="http://www.w3.org/2000/svg" id="svg4272" version="1.1" width="4411.028" height="5617.553" viewBox="0 0 4411.0278 5617.5532"><path d="M2057.935 5617.275c-93.796-6.214-180.19-55.875-232.058-133.392-20.803-31.09-31.599-57.05-51.54-123.934-86.31-289.482-144.008-648.655-170.212-1059.588-.835-13.09-.911-13.352-4.145-14.125-10.609-2.535-67.485-19.774-95.497-28.945-148.266-48.54-293.579-114.094-427.173-192.708-27.17-15.988-70.285-42.667-71.25-44.088-.344-.507-15.25-10.698-33.125-22.647-92.725-61.985-175.782-127-259.957-203.488-27.642-25.118-94.999-91.8-122.513-121.286-337.969-362.193-541.082-816.745-583.129-1305-5.032-58.43-6.458-91.353-7.15-165.01-.865-92.083 1.183-147.077 8.45-226.865 31.297-343.588 139.613-668.398 319.093-956.875C448.15 825.776 599.544 650.951 775.594 502.15c293.5-248.074 647.93-415.142 1024.216-482.786 12.031-2.163 27.23-4.987 33.774-6.276 18.55-3.653 52.22-8.433 76.226-10.822 30.534-3.038 95.257-3.016 123.125.041 80.402 8.821 146.319 31.122 203.75 68.93 91.557 60.275 153.823 157.484 170.732 266.542 3.346 21.586 4.678 73.683 2.494 97.576-14.463 158.212-110.836 334.772-307.493 563.345-62.779 72.968-126.08 141.404-146.371 158.243-41.911 34.782-89.167 56.462-144.362 66.23-19.16 3.39-60.483 4.658-80.899 2.481-55.846-5.954-108.397-27.029-154.101-61.8-13.93-10.598-37.77-34.028-49.76-48.904-35.339-43.845-56.374-93.57-64.776-153.125-1.966-13.937-1.983-57.441-.028-72.5 7.001-53.916 26.18-102.172 57.145-143.779l9.139-12.279-4.61 1.897c-2.536 1.043-18.673 8.841-35.86 17.329-327.533 161.74-592.81 435.038-742.509 764.957-84.362 185.925-131.02 383.15-140.758 595-1.613 35.095-.83 130.756 1.324 161.875 12.314 177.856 47.207 333.315 110.116 490.608 29.973 74.942 70.1 155.72 111.807 225.073 121.495 202.03 287.133 376.082 480.972 505.407 80.283 53.562 173.455 103.653 263.26 141.531 11.256 4.747 20.592 8.631 20.749 8.631.156 0 .668-13.36 1.136-29.687 11.18-389.892 55.782-795.141 126.4-1148.438 82.526-412.875 207.302-798.955 348.839-1079.375 195.078-386.499 449.316-644.559 754.288-765.627 74.593-29.612 156.33-51.372 234.375-62.395 55.145-7.789 88.517-10.014 148.75-9.918 48.649.077 76.484 1.536 116.875 6.128 137.228 15.598 278.957 58.223 386.734 116.309 202.894 109.349 371.644 295.823 499.31 551.753 58.138 116.552 96.287 219.61 134.417 363.125 60.2 226.583 80.488 477.907 58.223 721.25-36.325 397.023-180.008 788.014-409.746 1115-123.607 175.93-273.173 334.746-440.813 468.074-47.043 37.415-102.948 78.027-151.875 110.33-13.406 8.85-25.5 17.113-26.875 18.36-3.816 3.462-44.172 28.516-75.625 46.95-263.984 154.72-556.135 251.668-860.625 285.595-62.053 6.914-111.28 10.411-178.125 12.655-23.718.797-43.317 1.623-43.552 1.836-.235.213 1.059 17.445 2.874 38.294 27.456 315.27 74.81 583.589 141.261 800.406 15.31 49.95 18.057 64.565 19.039 101.25.5 18.662.157 29.395-1.348 42.337-15.9 136.635-120.416 244.66-255.97 264.566-15.835 2.325-48.823 3.857-62.929 2.923zm195-1856.7c72.238-3.218 130.923-9.21 196.836-20.094 385.793-63.708 730.032-265.428 978.954-573.657 76.995-95.34 143.8-200.002 199.86-313.125 100.952-203.702 157.387-409.734 174.62-637.5 2.772-36.648 3.16-165.009.601-199.375-8.88-119.274-24.136-206.21-55.719-317.5-20.46-72.1-44.842-134.632-79.429-203.721-46.254-92.394-94.424-162.191-150.6-218.216-25.401-25.333-42.02-39.145-67.623-56.207-30.015-20.002-54.487-31.251-93.75-43.097-81.174-24.49-161.663-29.086-237.5-13.56-207.966 42.573-389.615 229.95-540.267 557.301-39.174 85.122-81.512 194.565-120.409 311.25-149.599 448.784-239.989 996.456-259.945 1575-1.193 34.577-3.73 134.692-3.747 147.813l-.012 5.937 15.313-.012c8.422-.013 27.687-.563 42.812-1.237z" id="path4284" fill="#0098b6" fill-opacity="1" stroke="none"/></svg>