<svg version="1.1" id="svg4272" xmlns="http://www.w3.org/2000/svg" x="0" y="0" viewBox="853 -3270.4 6556.9 7101.3" xml:space="preserve"><style type="text/css">.st0{fill:#0098b6}</style><path id="path4284" class="st0" d="M3983.9 3088.7c-93.8-6.2-180.2-55.9-232.1-133.4-20.8-31.1-31.6-57-51.5-123.9-86.3-289.5-144-648.7-170.2-1059.6-.8-13.1-.9-13.4-4.1-14.1-10.6-2.5-67.5-19.8-95.5-28.9-148.3-48.5-293.6-114.1-427.2-192.7-27.2-16-70.3-42.7-71.2-44.1-.3-.5-15.2-10.7-33.1-22.6-92.7-62-175.8-127-260-203.5-27.6-25.1-95-91.8-122.5-121.3-338-362.2-541.1-816.7-583.1-1305-5-58.4-6.5-91.4-7.2-165-.9-92.1 1.2-147.1 8.5-226.9 31.3-343.6 139.6-668.4 319.1-956.9 120.4-193.5 271.8-368.4 447.9-517.2 293.5-248.1 647.9-415.1 1024.2-482.8 12-2.2 27.2-5 33.8-6.3 18.5-3.7 52.2-8.4 76.2-10.8 30.5-3 95.3-3 123.1 0 80.4 8.8 146.3 31.1 203.7 68.9 91.6 60.3 153.8 157.5 170.7 266.5 3.3 21.6 4.7 73.7 2.5 97.6-14.5 158.2-110.8 334.8-307.5 563.3-62.8 73-126.1 141.4-146.4 158.2-41.9 34.8-89.2 56.5-144.4 66.2-19.2 3.4-60.5 4.7-80.9 2.5-55.8-6-108.4-27-154.1-61.8-13.9-10.6-37.8-34-49.8-48.9-35.3-43.8-56.4-93.6-64.8-153.1-2-13.9-2-57.4 0-72.5 7-53.9 26.2-102.2 57.1-143.8l9.1-12.3-4.6 1.9c-2.5 1-18.7 8.8-35.9 17.3-327.5 161.7-592.8 435-742.5 765-84.4 185.9-131 383.2-140.8 595-1.6 35.1-.8 130.8 1.3 161.9 12.3 177.9 47.2 333.3 110.1 490.6 30 74.9 70.1 155.7 111.8 225.1 121.5 202 287.1 376.1 481 505.4 80.3 53.6 173.5 103.7 263.3 141.5 11.3 4.7 20.6 8.6 20.7 8.6.2 0 .7-13.4 1.1-29.7 11.2-389.9 55.8-795.1 126.4-1148.4 82.5-412.9 207.3-799 348.8-1079.4 195.1-386.5 449.3-644.6 754.3-765.6 74.6-29.6 156.3-51.4 234.4-62.4 55.1-7.8 88.5-10 148.8-9.9 48.6.1 76.5 1.5 116.9 6.1 137.2 15.6 279 58.2 386.7 116.3 202.9 109.3 371.6 295.8 499.3 551.8 58.1 116.6 96.3 219.6 134.4 363.1 60.2 226.6 80.5 477.9 58.2 721.2-36.3 397-180 788-409.7 1115-123.6 175.9-273.2 334.7-440.8 468.1-47 37.4-102.9 78-151.9 110.3-13.4 8.9-25.5 17.1-26.9 18.4-3.8 3.5-44.2 28.5-75.6 46.9-264 154.7-556.1 251.7-860.6 285.6-62.1 6.9-111.3 10.4-178.1 12.7-23.7.8-43.3 1.6-43.6 1.8s1.1 17.4 2.9 38.3c27.5 315.3 74.8 583.6 141.3 800.4 15.3 50 18.1 64.6 19 101.2.5 18.7.2 29.4-1.3 42.3-15.9 136.6-120.4 244.7-256 264.6-15.6 2.6-48.6 4.2-62.7 3.2zm195-1856.7c72.2-3.2 130.9-9.2 196.8-20.1 385.8-63.7 730-265.4 979-573.7 77-95.3 143.8-200 199.9-313.1 101-203.7 157.4-409.7 174.6-637.5 2.8-36.6 3.2-165 .6-199.4-8.9-119.3-24.1-206.2-55.7-317.5-20.5-72.1-44.8-134.6-79.4-203.7-46.3-92.4-94.4-162.2-150.6-218.2-25.4-25.3-42-39.1-67.6-56.2-30-20-54.5-31.3-93.8-43.1-81.2-24.5-161.7-29.1-237.5-13.6-208 42.6-389.6 230-540.3 557.3-39.2 85.1-81.5 194.6-120.4 311.2-149.6 448.8-240 996.5-259.9 1575-1.2 34.6-3.7 134.7-3.7 147.8v5.9h15.3c8.3.1 27.6-.4 42.7-1.1z"/></svg>