<?xml version="1.0" encoding="UTF-8" standalone="no"?>
<!-- Created with Inkscape (http://www.inkscape.org/) -->

<svg
   xmlns:dc="http://purl.org/dc/elements/1.1/"
   xmlns:cc="http://creativecommons.org/ns#"
   xmlns:rdf="http://www.w3.org/1999/02/22-rdf-syntax-ns#"
   xmlns:svg="http://www.w3.org/2000/svg"
   xmlns="http://www.w3.org/2000/svg"
   xmlns:sodipodi="http://sodipodi.sourceforge.net/DTD/sodipodi-0.dtd"
   xmlns:inkscape="http://www.inkscape.org/namespaces/inkscape"
   id="svg4272"
   version="1.1"
   inkscape:version="0.91 r13725"
   width="4411.0278"
   height="5617.5532"
   viewBox="0 0 4411.0278 5617.5532"
   sodipodi:docname="phi rouge.svg">
  <metadata
     id="metadata4278">
    <rdf:RDF>
      <cc:Work
         rdf:about="">
        <dc:format>image/svg+xml</dc:format>
        <dc:type
           rdf:resource="http://purl.org/dc/dcmitype/StillImage" />
        <dc:title></dc:title>
      </cc:Work>
    </rdf:RDF>
  </metadata>
  <defs
     id="defs4276" />
  <sodipodi:namedview
     pagecolor="#ffffff"
     bordercolor="#666666"
     borderopacity="1"
     objecttolerance="10"
     gridtolerance="10"
     guidetolerance="10"
     inkscape:pageopacity="0"
     inkscape:pageshadow="2"
     inkscape:window-width="1366"
     inkscape:window-height="705"
     id="namedview4274"
     showgrid="false"
     fit-margin-top="0"
     fit-margin-left="0"
     fit-margin-right="0"
     fit-margin-bottom="0"
     inkscape:zoom="0.090411568"
     inkscape:cx="841.88215"
     inkscape:cy="2746.1174"
     inkscape:window-x="-8"
     inkscape:window-y="-8"
     inkscape:window-maximized="1"
     inkscape:current-layer="svg4272" />
  <path
     style="fill:#c9462c;fill-opacity:1;stroke:none"
     d="m 2057.9347,5617.2749 c -93.7955,-6.2137 -180.1896,-55.875 -232.0581,-133.392 -20.8024,-31.089 -31.5985,-57.0495 -51.5403,-123.9337 -86.3096,-289.4821 -144.0068,-648.6556 -170.2111,-1059.5878 -0.8349,-13.0913 -0.9114,-13.3523 -4.1455,-14.1251 -10.6082,-2.5351 -67.4851,-19.7745 -95.497,-28.9451 -148.2655,-48.5399 -293.5787,-114.094 -427.173,-192.7078 -27.1696,-15.988 -70.2851,-42.6675 -71.25,-44.0888 -0.3437,-0.5064 -15.25003,-10.6973 -33.12503,-22.6465 -92.7249,-61.9852 -175.7821,-127.0004 -259.9565,-203.4877 -27.6426,-25.1182 -94.9991,-91.8002 -122.513,-121.2862 -337.969,-362.1931 -541.081954,-816.7449 -583.1291536,-1305 -5.0319,-58.4305 -6.45850001,-91.3531 -7.15040001,-165.0101 -0.8649,-92.0828 1.18380001,-147.0773 8.45130001,-226.8649 C 39.932916,1632.6113 148.24877,1307.8007 327.72937,1019.3242 448.14857,825.77605 599.54397,650.95105 775.59367,502.14924 1069.0941,254.07497 1423.5245,87.006708 1799.8097,19.363261 c 12.0313,-2.162815 27.2296,-4.986942 33.7741,-6.275838 18.5497,-3.6532262 52.2194,-8.4334122 76.2259,-10.8219972 30.5338,-3.03803902 95.2574,-3.01655702 123.125,0.04086 80.402,8.8210792 146.3191,31.1212412 203.75,68.9297792 91.5569,60.274835 153.8233,157.483535 170.7319,266.542395 3.3466,21.5856 4.6782,73.68259 2.494,97.57601 -14.4629,158.21134 -110.8354,334.77183 -307.4923,563.34472 -62.7789,72.96741 -126.081,141.40361 -146.3717,158.24291 -41.911,34.7822 -89.1667,56.4619 -144.3619,66.2297 -19.1595,3.3906 -60.4823,4.6582 -80.8984,2.4815 -55.8459,-5.9539 -108.3975,-27.0292 -154.1016,-61.801 -13.9298,-10.5978 -37.7699,-34.0277 -49.7592,-48.9031 -35.3392,-43.8456 -56.3741,-93.5702 -64.7763,-153.125 -1.9664,-13.93761 -1.9829,-57.44134 -0.028,-72.5 7.001,-53.91626 26.1802,-102.17198 57.1453,-143.77893 l 9.1382,-12.27888 -4.6102,1.89671 c -2.5355,1.04319 -18.6727,8.84101 -35.8602,17.3285 -327.532,161.74092 -592.80853,435.038 -742.50803,764.9576 -84.3626,185.925 -131.0197,383.15 -140.7578,595 -1.6132,35.095 -0.831,130.7557 1.3236,161.875 12.3143,177.856 47.2067,333.3149 110.1159,490.6077 29.9728,74.942 70.0999,155.7195 111.8071,225.0728 121.4951,202.0297 287.13293,376.0824 480.97213,505.407 80.2826,53.5625 173.4553,103.653 263.2605,141.5314 11.2549,4.7471 20.5915,8.6311 20.7481,8.6311 0.1567,0 0.6679,-13.3594 1.1362,-29.6875 11.1796,-389.8916 55.7823,-795.1409 126.4,-1148.4375 82.5262,-412.8749 207.302,-798.9554 348.8386,-1079.375 195.0784,-386.4991 449.3164,-644.55875 754.2887,-765.62686 74.5929,-29.61193 156.3302,-51.37198 234.375,-62.3952 55.1449,-7.78878 88.5172,-10.014 148.75,-9.91848 48.6485,0.0771 76.4833,1.53655 116.875,6.12785 137.2273,15.59854 278.9568,58.22333 386.7335,116.30915 202.8945,109.34909 371.6447,295.82349 499.3097,551.75354 58.139,116.5514 96.2878,219.6094 134.4176,363.125 60.1994,226.5832 80.4876,477.907 58.2232,721.25 -36.3251,397.0231 -180.0084,788.0134 -409.7464,1115 -123.6065,175.9294 -273.1728,334.7455 -440.8126,468.0741 -47.0428,37.4145 -102.9485,78.0271 -151.875,110.3294 -13.4062,8.8511 -25.5,17.1134 -26.875,18.3606 -3.8163,3.4618 -44.1723,28.5159 -75.625,46.95 -263.9843,154.7188 -556.1357,251.6679 -860.625,285.5943 -62.0528,6.914 -111.2812,10.4116 -178.125,12.6557 -23.7187,0.7963 -43.3171,1.6223 -43.552,1.8355 -0.2348,0.2133 1.0585,17.4456 2.8742,38.294 27.4557,315.2708 74.8101,583.5888 141.2606,800.4064 15.309,49.9507 18.0568,64.5645 19.0387,101.25 0.4994,18.6621 0.1577,29.395 -1.3482,42.3365 -15.8995,136.635 -120.4158,244.6611 -255.9701,264.5662 -15.8349,2.3253 -48.822,3.8575 -62.9282,2.923 z m 195,-1856.6997 c 72.2388,-3.2186 130.9231,-9.2094 196.8363,-20.094 385.7935,-63.7078 730.0317,-265.4279 978.9541,-573.657 76.995,-95.3395 143.7991,-200.0025 199.8607,-313.125 100.9514,-203.7021 157.386,-409.7344 174.6187,-637.5 2.7727,-36.6478 3.1601,-165.0089 0.6017,-199.375 -8.8794,-119.2741 -24.1361,-206.2104 -55.7189,-317.5 -20.4608,-72.0993 -44.8421,-134.6325 -79.4292,-203.7214 -46.254,-92.3935 -94.4244,-162.1911 -150.6004,-218.2157 -25.4012,-25.3329 -42.0191,-39.1454 -67.623,-56.2074 -30.0151,-20.0015 -54.487,-31.2512 -93.75,-43.0967 -81.1741,-24.49 -161.6629,-29.0857 -237.5,-13.5607 -207.9657,42.5738 -389.6149,229.9506 -540.2664,557.3019 -39.1741,85.1217 -81.5128,194.5649 -120.409,311.25 -149.599,448.7842 -239.9893,996.4555 -259.9458,1575 -1.1928,34.577 -3.7303,134.6921 -3.7464,147.8125 l -0.012,5.9375 15.3125,-0.012 c 8.4219,-0.013 27.6875,-0.5633 42.8125,-1.2371 z"
     id="path4284"
     inkscape:connector-curvature="0" />
</svg>
