<?xml version="1.0" encoding="utf-8"?>
<!-- Generator: Adobe Illustrator 19.0.0, SVG Export Plug-In . SVG Version: 6.00 Build 0)  -->
<svg version="1.1"
	 id="svg4272" inkscape:version="0.91 r13725" sodipodi:docname="phi bleu.svg" xmlns:sodipodi="http://sodipodi.sourceforge.net/DTD/sodipodi-0.dtd" xmlns:svg="http://www.w3.org/2000/svg" xmlns:rdf="http://www.w3.org/1999/02/22-rdf-syntax-ns#" xmlns:cc="http://creativecommons.org/ns#" xmlns:dc="http://purl.org/dc/elements/1.1/" xmlns:inkscape="http://www.inkscape.org/namespaces/inkscape"
	 xmlns="http://www.w3.org/2000/svg" xmlns:xlink="http://www.w3.org/1999/xlink" x="0px" y="0px"
	 viewBox="853 -3270.4 6556.9 7101.3" style="enable-background:new 853 -3270.4 6556.9 7101.3;" xml:space="preserve">
<style type="text/css">
	.st0{fill:#FFFFFF;}
</style>
<sodipodi:namedview  inkscape:current-layer="svg4272" inkscape:window-maximized="1" inkscape:window-y="-8" inkscape:window-x="-8" fit-margin-bottom="0" fit-margin-right="0" inkscape:window-height="705" inkscape:window-width="1366" inkscape:pageopacity="0" inkscape:pageshadow="2" inkscape:cy="2746.1174" inkscape:cx="841.88215" inkscape:zoom="0.090411568" fit-margin-left="0" fit-margin-top="0" showgrid="false" guidetolerance="10" gridtolerance="10" objecttolerance="10" borderopacity="1" pagecolor="#ffffff" bordercolor="#666666" id="namedview4274">
	</sodipodi:namedview>
<path id="path4284" inkscape:connector-curvature="0" class="st0" d="M3983.9,3088.7c-93.8-6.2-180.2-55.9-232.1-133.4
	c-20.8-31.1-31.6-57-51.5-123.9c-86.3-289.5-144-648.7-170.2-1059.6c-0.8-13.1-0.9-13.4-4.1-14.1c-10.6-2.5-67.5-19.8-95.5-28.9
	c-148.3-48.5-293.6-114.1-427.2-192.7c-27.2-16-70.3-42.7-71.2-44.1c-0.3-0.5-15.2-10.7-33.1-22.6c-92.7-62-175.8-127-260-203.5
	c-27.6-25.1-95-91.8-122.5-121.3c-338-362.2-541.1-816.7-583.1-1305c-5-58.4-6.5-91.4-7.2-165c-0.9-92.1,1.2-147.1,8.5-226.9
	c31.3-343.6,139.6-668.4,319.1-956.9c120.4-193.5,271.8-368.4,447.9-517.2c293.5-248.1,647.9-415.1,1024.2-482.8
	c12-2.2,27.2-5,33.8-6.3c18.5-3.7,52.2-8.4,76.2-10.8c30.5-3,95.3-3,123.1,0c80.4,8.8,146.3,31.1,203.7,68.9
	c91.6,60.3,153.8,157.5,170.7,266.5c3.3,21.6,4.7,73.7,2.5,97.6c-14.5,158.2-110.8,334.8-307.5,563.3
	c-62.8,73-126.1,141.4-146.4,158.2c-41.9,34.8-89.2,56.5-144.4,66.2c-19.2,3.4-60.5,4.7-80.9,2.5c-55.8-6-108.4-27-154.1-61.8
	c-13.9-10.6-37.8-34-49.8-48.9c-35.3-43.8-56.4-93.6-64.8-153.1c-2-13.9-2-57.4,0-72.5c7-53.9,26.2-102.2,57.1-143.8l9.1-12.3
	l-4.6,1.9c-2.5,1-18.7,8.8-35.9,17.3c-327.5,161.7-592.8,435-742.5,765c-84.4,185.9-131,383.2-140.8,595
	c-1.6,35.1-0.8,130.8,1.3,161.9c12.3,177.9,47.2,333.3,110.1,490.6c30,74.9,70.1,155.7,111.8,225.1c121.5,202,287.1,376.1,481,505.4
	c80.3,53.6,173.5,103.7,263.3,141.5c11.3,4.7,20.6,8.6,20.7,8.6c0.2,0,0.7-13.4,1.1-29.7c11.2-389.9,55.8-795.1,126.4-1148.4
	c82.5-412.9,207.3-799,348.8-1079.4c195.1-386.5,449.3-644.6,754.3-765.6c74.6-29.6,156.3-51.4,234.4-62.4
	c55.1-7.8,88.5-10,148.8-9.9c48.6,0.1,76.5,1.5,116.9,6.1c137.2,15.6,279,58.2,386.7,116.3c202.9,109.3,371.6,295.8,499.3,551.8
	c58.1,116.6,96.3,219.6,134.4,363.1c60.2,226.6,80.5,477.9,58.2,721.2c-36.3,397-180,788-409.7,1115
	c-123.6,175.9-273.2,334.7-440.8,468.1c-47,37.4-102.9,78-151.9,110.3c-13.4,8.9-25.5,17.1-26.9,18.4c-3.8,3.5-44.2,28.5-75.6,46.9
	c-264,154.7-556.1,251.7-860.6,285.6c-62.1,6.9-111.3,10.4-178.1,12.7c-23.7,0.8-43.3,1.6-43.6,1.8s1.1,17.4,2.9,38.3
	c27.5,315.3,74.8,583.6,141.3,800.4c15.3,50,18.1,64.6,19,101.2c0.5,18.7,0.2,29.4-1.3,42.3c-15.9,136.6-120.4,244.7-256,264.6
	C4031,3088.1,3998,3089.7,3983.9,3088.7L3983.9,3088.7z M4178.9,1232c72.2-3.2,130.9-9.2,196.8-20.1c385.8-63.7,730-265.4,979-573.7
	c77-95.3,143.8-200,199.9-313.1c101-203.7,157.4-409.7,174.6-637.5c2.8-36.6,3.2-165,0.6-199.4c-8.9-119.3-24.1-206.2-55.7-317.5
	c-20.5-72.1-44.8-134.6-79.4-203.7c-46.3-92.4-94.4-162.2-150.6-218.2c-25.4-25.3-42-39.1-67.6-56.2c-30-20-54.5-31.3-93.8-43.1
	c-81.2-24.5-161.7-29.1-237.5-13.6c-208,42.6-389.6,230-540.3,557.3c-39.2,85.1-81.5,194.6-120.4,311.2
	c-149.6,448.8-240,996.5-259.9,1575c-1.2,34.6-3.7,134.7-3.7,147.8l0,5.9l15.3,0C4144.5,1233.2,4163.8,1232.7,4178.9,1232
	L4178.9,1232z"/>
</svg>
